<svg xmlns="http://www.w3.org/2000/svg" viewBox="0 0 200 200">
  <!-- Background gradient square -->
  <defs>
    <linearGradient id="vueGradient" x1="0%" y1="0%" x2="100%" y2="100%">
      <stop offset="0%" style="stop-color:#42b883;stop-opacity:1" />
      <stop offset="100%" style="stop-color:#35495e;stop-opacity:1" />
    </linearGradient>
  </defs>

  <!-- Background square with gradient -->
  <rect x="5" y="5" width="190" height="190" rx="20" fill="url(#vueGradient)"/>

  <!-- Vue V shape (outer, darker) -->
  <path d="M 45 65 L 100 145 L 155 65" stroke="#2c3e50" stroke-width="16" fill="none" stroke-linecap="round" stroke-linejoin="round"/>

  <!-- Vue V shape (inner, green) -->
  <path d="M 45 65 L 100 145 L 155 65" stroke="#42b883" stroke-width="10" fill="none" stroke-linecap="round" stroke-linejoin="round"/>

  <!-- Nuxt N shape outer border (darker) -->
  <path d="M 70 85 C 70 85 70 125 70 125 C 70 128 72 130 75 130 L 85 130 C 88 130 90 128 90 125 L 90 105 L 110 125 C 110 125 130 130 130 130 C 133 130 135 128 135 125 L 135 85 C 135 82 133 80 130 80 L 120 80 C 117 80 115 82 115 85 L 115 105 L 95 85 C 95 85 80 80 75 80 C 72 80 70 82 70 85 Z" stroke="#2c3e50" stroke-width="4" fill="none"/>
  <!-- Nuxt N shape (white, in center, rounded) -->
  <path d="M 70 85 C 70 85 70 125 70 125 C 70 128 72 130 75 130 L 85 130 C 88 130 90 128 90 125 L 90 105 L 110 125 C 110 125 130 130 130 130 C 133 130 135 128 135 125 L 135 85 C 135 82 133 80 130 80 L 120 80 C 117 80 115 82 115 85 L 115 105 L 95 85 C 95 85 80 80 75 80 C 72 80 70 82 70 85 Z" fill="white"/>
</svg>
